<svg width="51" height="20" viewBox="0 0 51 20" fill="none" xmlns="http://www.w3.org/2000/svg">
<g clip-path="url(#clip0_46_360)">
<path d="M12.457 0.419678C10.5176 0.419678 8.65757 1.19012 7.28618 2.56151L2.81053 7.03716C1.43914 8.40854 0.668701 10.2685 0.668701 12.208C0.668701 16.2467 3.9427 19.5207 7.98139 19.5207C9.92084 19.5207 11.7808 18.7502 13.1522 17.3788L16.248 14.283C16.248 14.2829 16.2481 14.2831 16.248 14.283L25.2682 5.2628C25.9232 4.60783 26.8115 4.23988 27.7378 4.23988C29.2886 4.23988 30.6033 5.25058 31.0591 6.64919L33.9058 3.80244C32.6072 1.76842 30.33 0.419678 27.7378 0.419678C25.7984 0.419678 23.9384 1.19012 22.567 2.56151L10.451 14.6776C9.79599 15.3325 8.90766 15.7005 7.98139 15.7005C6.05253 15.7005 4.4889 14.1369 4.4889 12.208C4.4889 11.2817 4.85686 10.3934 5.51182 9.73842L9.98744 5.2628C10.6424 4.60783 11.5307 4.23988 12.457 4.23988C14.0078 4.23988 15.3225 5.25063 15.7783 6.64928L18.6251 3.80251C17.3264 1.76846 15.0493 0.419678 12.457 0.419678Z" fill="#CACACA" fill-opacity="0.9"/>
<path d="M25.7318 14.6776C25.0769 15.3325 24.1885 15.7005 23.2623 15.7005C21.7117 15.7005 20.3971 14.69 19.9412 13.2916L17.0945 16.1383C18.3932 18.1721 20.6703 19.5207 23.2623 19.5207C25.2017 19.5207 27.0617 18.7502 28.4331 17.3788L40.5491 5.2628C41.2041 4.60783 42.0924 4.23988 43.0187 4.23988C44.9476 4.23988 46.5112 5.80351 46.5112 7.73237C46.5112 8.65864 46.1432 9.54696 45.4882 10.2019L41.0126 14.6776C40.3577 15.3325 39.4693 15.7005 38.5431 15.7005C36.9924 15.7005 35.6777 14.6898 35.2218 13.2913L32.3752 16.1381C33.6738 18.172 35.9509 19.5207 38.5431 19.5207C40.4825 19.5207 42.3425 18.7502 43.7139 17.3788L48.1895 12.9032C49.5609 11.5318 50.3314 9.67182 50.3314 7.73237C50.3314 3.69368 47.0574 0.419678 43.0187 0.419678C41.0792 0.419678 39.2192 1.19012 37.8478 2.56151L25.7318 14.6776Z" fill="#CACACA" fill-opacity="0.9"/>
</g>
<defs>
<clipPath id="clip0_46_360">
<rect width="49.6626" height="19.101" fill="white" transform="translate(0.668701 0.419678)"/>
</clipPath>
</defs>
</svg>
