<svg width="16" height="22" viewBox="0 0 16 22" fill="none" xmlns="http://www.w3.org/2000/svg">
<path d="M8.15957 10.62C8.12957 10.62 8.10957 10.62 8.07957 10.62C8.02957 10.61 7.95957 10.61 7.89957 10.62C4.99957 10.53 2.80957 8.25 2.80957 5.44C2.80957 2.58 5.13957 0.25 7.99957 0.25C10.8596 0.25 13.1896 2.58 13.1896 5.44C13.1796 8.25 10.9796 10.53 8.18957 10.62C8.17957 10.62 8.16957 10.62 8.15957 10.62ZM7.99957 1.75C5.96957 1.75 4.30957 3.41 4.30957 5.44C4.30957 7.44 5.86957 9.05 7.85957 9.12C7.90957 9.11 8.04957 9.11 8.17957 9.12C10.1396 9.03 11.6796 7.42 11.6896 5.44C11.6896 3.41 10.0296 1.75 7.99957 1.75Z" fill="white"/>
<path d="M8.16961 21.55C6.20961 21.55 4.23961 21.05 2.74961 20.05C1.35961 19.13 0.599609 17.87 0.599609 16.5C0.599609 15.13 1.35961 13.86 2.74961 12.93C5.74961 10.94 10.6096 10.94 13.5896 12.93C14.9696 13.85 15.7396 15.11 15.7396 16.48C15.7396 17.85 14.9796 19.12 13.5896 20.05C12.0896 21.05 10.1296 21.55 8.16961 21.55ZM3.57961 14.19C2.61961 14.83 2.09961 15.65 2.09961 16.51C2.09961 17.36 2.62961 18.18 3.57961 18.81C6.06961 20.48 10.2696 20.48 12.7596 18.81C13.7196 18.17 14.2396 17.35 14.2396 16.49C14.2396 15.64 13.7096 14.82 12.7596 14.19C10.2696 12.53 6.06961 12.53 3.57961 14.19Z" fill="white"/>
</svg>
