<svg width="22" height="22" viewBox="0 0 22 22" fill="none" xmlns="http://www.w3.org/2000/svg">
<path d="M5.87988 17.9C5.46988 17.9 5.12988 17.56 5.12988 17.15V15.08C5.12988 14.67 5.46988 14.33 5.87988 14.33C6.28988 14.33 6.62988 14.67 6.62988 15.08V17.15C6.62988 17.57 6.28988 17.9 5.87988 17.9Z" fill="white"/>
<path d="M11 17.9C10.59 17.9 10.25 17.56 10.25 17.15V13C10.25 12.59 10.59 12.25 11 12.25C11.41 12.25 11.75 12.59 11.75 13V17.15C11.75 17.57 11.41 17.9 11 17.9Z" fill="white"/>
<path d="M16.1201 17.9C15.7101 17.9 15.3701 17.56 15.3701 17.15V10.93C15.3701 10.52 15.7101 10.18 16.1201 10.18C16.5301 10.18 16.8701 10.52 16.8701 10.93V17.15C16.8701 17.57 16.5401 17.9 16.1201 17.9Z" fill="white"/>
<path d="M5.88007 12.18C5.54007 12.18 5.24007 11.95 5.15007 11.61C5.05007 11.21 5.29007 10.8 5.70007 10.7C9.38007 9.78 12.6201 7.77 15.0901 4.9L15.5501 4.36C15.8201 4.05 16.2901 4.01 16.6101 4.28C16.9201 4.55 16.9601 5.02 16.6901 5.34L16.2301 5.88C13.5601 9 10.0401 11.17 6.06007 12.16C6.00007 12.18 5.94007 12.18 5.88007 12.18Z" fill="white"/>
<path d="M16.1199 8.52001C15.7099 8.52001 15.3699 8.18001 15.3699 7.77001V5.60001H13.1899C12.7799 5.60001 12.4399 5.26001 12.4399 4.85001C12.4399 4.44001 12.7799 4.10001 13.1899 4.10001H16.1199C16.5299 4.10001 16.8699 4.44001 16.8699 4.85001V7.78001C16.8699 8.19001 16.5399 8.52001 16.1199 8.52001Z" fill="white"/>
<path d="M14 21.75H8C2.57 21.75 0.25 19.43 0.25 14V8C0.25 2.57 2.57 0.25 8 0.25H14C19.43 0.25 21.75 2.57 21.75 8V14C21.75 19.43 19.43 21.75 14 21.75ZM8 1.75C3.39 1.75 1.75 3.39 1.75 8V14C1.75 18.61 3.39 20.25 8 20.25H14C18.61 20.25 20.25 18.61 20.25 14V8C20.25 3.39 18.61 1.75 14 1.75H8Z" fill="white"/>
</svg>
