<svg width="621" height="621" viewBox="0 0 621 621" fill="none" xmlns="http://www.w3.org/2000/svg">
<rect x="0.459961" y="0.108368" width="620" height="620" rx="102" fill="#373737"/>
<path fill-rule="evenodd" clip-rule="evenodd" d="M399.315 294.028L335.615 348.438L394.725 398.918C397.115 400.958 398.355 403.658 398.355 406.798V433.068C398.355 438.778 393.695 443.428 387.995 443.428H222.555V415.878C211.475 415.438 200.305 412.768 189.545 407.808C158.525 393.508 139.825 364.288 139.815 330.138V397.668V526.158H413.275C450.635 526.158 481.105 495.688 481.105 458.338V395.138C481.105 374.598 472.945 356.898 457.325 343.558L399.315 294.028Z" fill="url(#paint0_linear_185_251)"/>
<path fill-rule="evenodd" clip-rule="evenodd" d="M399.315 294.028L335.615 348.438L387.115 392.418C399.895 369.128 411.565 342.828 422.125 313.508L399.315 294.028ZM353.605 443.428H222.555V415.878C211.475 415.438 200.305 412.768 189.545 407.808C158.525 393.508 139.825 364.288 139.815 330.138V397.668V526.158H214.255C268.505 519.668 314.955 492.098 353.605 443.428Z" fill="#9061FF"/>
<path fill-rule="evenodd" clip-rule="evenodd" d="M399.315 294.028L335.615 348.438L342.615 354.418L399.295 303.498L404.705 298.638L399.315 294.028ZM222.555 432.798V415.868C211.475 415.428 200.305 412.758 189.545 407.798C158.525 393.498 139.825 364.278 139.815 330.128V397.658V434.818L221.405 432.778L222.555 432.798Z" fill="#6644B5"/>
<path fill-rule="evenodd" clip-rule="evenodd" d="M222.555 285.978C243.405 286.808 263.935 279.748 280.895 265.268L335.615 218.528L399.315 164.118L419.645 146.758C425.885 141.428 430.945 135.398 434.755 128.768C423.115 108.078 400.945 94.0584 375.595 94.0584H139.815V199.098V200.228C139.815 234.378 158.525 263.598 189.545 277.898C200.305 282.868 211.475 285.538 222.555 285.978Z" fill="url(#paint1_linear_185_251)"/>
<path fill-rule="evenodd" clip-rule="evenodd" d="M223.225 285.998C243.835 286.648 264.115 279.588 280.895 265.268L335.615 218.528L399.315 164.118L419.645 146.758C425.885 141.428 430.945 135.398 434.755 128.768C432.305 124.408 429.385 120.348 426.065 116.658C327.645 210.778 191.725 180.098 233.255 94.0584H139.815V199.098V200.228C139.815 234.378 158.525 263.598 189.545 277.898C197.735 281.678 206.165 284.118 214.605 285.268C217.455 285.578 220.335 285.808 223.225 285.998Z" fill="#773CFF"/>
<path fill-rule="evenodd" clip-rule="evenodd" d="M222.555 285.978C243.405 286.808 263.935 279.748 280.895 265.268L335.615 218.528L399.315 164.118L419.645 146.758C425.885 141.428 430.945 135.398 434.755 128.768C433.685 126.858 432.515 125.008 431.275 123.218C427.095 129.618 421.705 135.348 415.165 140.318L393.885 156.488L377.215 169.158C359.315 182.758 339.605 188.768 317.165 187.448L139.825 177.048V199.088V200.218C139.825 234.368 158.535 263.588 189.555 277.888C200.305 282.868 211.475 285.538 222.555 285.978Z" fill="#6644B5"/>
<path fill-rule="evenodd" clip-rule="evenodd" d="M335.615 348.428L399.315 294.018L419.645 276.658C435.265 263.318 443.425 245.628 443.425 225.088V161.888C443.425 149.878 440.275 138.578 434.755 128.778C430.945 135.408 425.895 141.428 419.645 146.768L399.315 164.128L383.395 177.728C366.305 192.328 346.955 199.448 324.475 199.408L139.815 199.108V200.238V222.568V302.438V310.388V328.998V330.128V415.868H222.555C243.405 416.698 263.935 409.638 280.895 395.158L335.615 348.428Z" fill="url(#paint2_linear_185_251)"/>
<path fill-rule="evenodd" clip-rule="evenodd" d="M335.615 348.428L399.315 294.018L419.645 276.658C435.265 263.318 443.425 245.628 443.425 225.088V193.488L311.755 275.378C297.795 284.058 283.685 288.088 267.235 288.088H139.815V302.438V310.388V328.998V330.128V415.868H222.555C243.405 416.698 263.935 409.638 280.895 395.158L335.615 348.428Z" fill="#773CFF"/>
<path fill-rule="evenodd" clip-rule="evenodd" d="M342.615 354.408L335.615 348.428L280.895 395.168C263.935 409.648 243.405 416.708 222.555 415.878V432.808C243.525 432.838 263.935 425.088 280.625 410.098L335.465 360.838L342.615 354.408Z" fill="#8C9AA9"/>
<path fill-rule="evenodd" clip-rule="evenodd" d="M285.115 305.308H222.555V415.878C243.405 416.708 263.935 409.648 280.895 395.168L335.615 348.428L285.115 305.308Z" fill="white" fill-opacity="0.302"/>
<defs>
<linearGradient id="paint0_linear_185_251" x1="266.09" y1="384.321" x2="377.833" y2="552.487" gradientUnits="userSpaceOnUse">
<stop stop-color="#5C17FF"/>
<stop offset="1" stop-color="#A681FF"/>
</linearGradient>
<linearGradient id="paint1_linear_185_251" x1="256.926" y1="206.425" x2="310.031" y2="34.9409" gradientUnits="userSpaceOnUse">
<stop stop-color="#6B3BDD"/>
<stop offset="1" stop-color="#D7C5FF"/>
</linearGradient>
<linearGradient id="paint2_linear_185_251" x1="136.653" y1="345.684" x2="424.044" y2="154.458" gradientUnits="userSpaceOnUse">
<stop stop-color="#6A2BFF"/>
<stop offset="1" stop-color="#B191FF"/>
</linearGradient>
</defs>
</svg>
