<svg width="19" height="24" viewBox="0 0 19 24" fill="none" xmlns="http://www.w3.org/2000/svg">
<path fill-rule="evenodd" clip-rule="evenodd" d="M14.3458 10.7711L10.9836 13.6429L14.1035 16.3073C14.2297 16.415 14.2951 16.5575 14.2951 16.7232V18.1097C14.2951 18.4111 14.0491 18.6566 13.7483 18.6566H5.01625V17.2024C4.43144 17.1792 3.84188 17.0383 3.27396 16.7765C1.6367 16.0217 0.649698 14.4795 0.64917 12.677V16.2413V23.0231H15.0826C17.0545 23.0231 18.6627 21.4149 18.6627 19.4435V16.1078C18.6627 15.0237 18.232 14.0894 17.4076 13.3853L14.3458 10.7711Z" fill="url(#paint0_linear_171_344)"/>
<path fill-rule="evenodd" clip-rule="evenodd" d="M14.3458 10.7711L10.9836 13.6429L13.7018 15.9642C14.3764 14.7349 14.9923 13.3468 15.5497 11.7993L14.3458 10.7711ZM11.9332 18.6566H5.01625V17.2024C4.43144 17.1792 3.84188 17.0383 3.27396 16.7765C1.6367 16.0217 0.649698 14.4795 0.64917 12.677V16.2413V23.0231H4.57817C7.44152 22.6806 9.89319 21.2254 11.9332 18.6566Z" fill="#9061FF"/>
<path fill-rule="evenodd" clip-rule="evenodd" d="M14.3458 10.7711L10.9836 13.6429L11.3531 13.9585L14.3447 11.271L14.6303 11.0144L14.3458 10.7711ZM5.01625 18.0955V17.2019C4.43144 17.1787 3.84188 17.0378 3.27396 16.776C1.6367 16.0212 0.649698 14.479 0.64917 12.6765V16.2408V18.2021L4.95555 18.0944L5.01625 18.0955Z" fill="#6644B5"/>
<path fill-rule="evenodd" clip-rule="evenodd" d="M5.01625 10.3462C6.11672 10.39 7.20031 10.0174 8.09547 9.25314L10.9836 6.78617L14.3458 3.91437L15.4188 2.9981C15.7481 2.71678 16.0152 2.39851 16.2163 2.04857C15.6019 0.956538 14.4318 0.216553 13.0938 0.216553H0.64917V5.76064V5.82028C0.64917 7.62274 1.6367 9.16499 3.27396 9.91976C3.84188 10.1821 4.43144 10.323 5.01625 10.3462Z" fill="url(#paint1_linear_171_344)"/>
<path fill-rule="evenodd" clip-rule="evenodd" d="M5.05161 10.3473C6.13942 10.3816 7.20981 10.009 8.09547 9.25314L10.9836 6.78617L14.3458 3.91437L15.4188 2.9981C15.7481 2.71678 16.0152 2.39851 16.2163 2.04857C16.087 1.81845 15.9329 1.60416 15.7576 1.4094C10.563 6.37712 3.38902 4.75781 5.581 0.216553H0.64917V5.76064V5.82028C0.64917 7.62274 1.6367 9.16499 3.27396 9.91976C3.70623 10.1193 4.15117 10.2481 4.59664 10.3088C4.74706 10.3251 4.89907 10.3373 5.05161 10.3473Z" fill="#773CFF"/>
<path fill-rule="evenodd" clip-rule="evenodd" d="M5.01621 10.3462C6.11668 10.39 7.20027 10.0174 8.09543 9.25311L10.9836 6.78614L14.3457 3.91435L15.4188 2.99807C15.7481 2.71675 16.0152 2.39848 16.2163 2.04855C16.1598 1.94774 16.098 1.85009 16.0326 1.75562C15.812 2.09341 15.5275 2.39585 15.1823 2.65817L14.0591 3.51163L13.1793 4.18036C12.2345 4.89818 11.1942 5.21539 10.0098 5.14572L0.649658 4.5968V5.76009V5.81973C0.649658 7.62219 1.63719 9.16444 3.27444 9.91921C3.84184 10.1821 4.4314 10.323 5.01621 10.3462Z" fill="#6644B5"/>
<path fill-rule="evenodd" clip-rule="evenodd" d="M10.9836 13.6424L14.3458 10.7706L15.4188 9.85434C16.2432 9.15025 16.6739 8.21656 16.6739 7.13244V3.7967C16.6739 3.16281 16.5077 2.56638 16.2163 2.04913C16.0152 2.39907 15.7487 2.71681 15.4188 2.99866L14.3458 3.91493L13.5055 4.63275C12.6035 5.40335 11.5822 5.77915 10.3957 5.77704L0.64917 5.7612V5.82084V6.99944V11.215V11.6346V12.6169V12.6765V17.2019H5.01625C6.11672 17.2458 7.20031 16.8731 8.09547 16.1089L10.9836 13.6424Z" fill="url(#paint2_linear_171_344)"/>
<path fill-rule="evenodd" clip-rule="evenodd" d="M10.9836 13.6423L14.3458 10.7705L15.4188 9.85425C16.2432 9.15015 16.6739 8.21646 16.6739 7.13235V5.46448L9.72429 9.78669C8.98747 10.2448 8.24273 10.4575 7.37449 10.4575H0.64917V11.2149V11.6345V12.6168V12.6764V17.2019H5.01625C6.11672 17.2457 7.20031 16.873 8.09547 16.1088L10.9836 13.6423Z" fill="#773CFF"/>
<path fill-rule="evenodd" clip-rule="evenodd" d="M8.31832 11.3666H5.01636V17.2025C6.11684 17.2463 7.20042 16.8737 8.09559 16.1095L10.9837 13.6425L8.31832 11.3666Z" fill="white" fill-opacity="0.302"/>
<defs>
<linearGradient id="paint0_linear_171_344" x1="7.31407" y1="15.5368" x2="13.2119" y2="24.4127" gradientUnits="userSpaceOnUse">
<stop stop-color="#5C17FF"/>
<stop offset="1" stop-color="#A681FF"/>
</linearGradient>
<linearGradient id="paint1_linear_171_344" x1="6.8304" y1="6.14736" x2="9.63327" y2="-2.90371" gradientUnits="userSpaceOnUse">
<stop stop-color="#6B3BDD"/>
<stop offset="1" stop-color="#D7C5FF"/>
</linearGradient>
<linearGradient id="paint2_linear_171_344" x1="0.482273" y1="13.4976" x2="15.651" y2="3.40453" gradientUnits="userSpaceOnUse">
<stop stop-color="#6A2BFF"/>
<stop offset="1" stop-color="#B191FF"/>
</linearGradient>
</defs>
</svg>
